<svg xmlns="http://www.w3.org/2000/svg" viewBox="0 0 1616.9 776.97"><defs><style>.cls-1{font-size:240.1px;font-family:Montserrat-Bold, Montserrat;font-weight:700;}.cls-2{letter-spacing:-0.02em;}.cls-3{letter-spacing:-0.06em;}.cls-4,.cls-5,.cls-6,.cls-7{fill:none;}.cls-4,.cls-5,.cls-6{stroke:#000;}.cls-4,.cls-6,.cls-7{stroke-miterlimit:10;}.cls-4,.cls-5,.cls-7{stroke-width:2px;}.cls-5{stroke-linecap:round;stroke-linejoin:round;}.cls-7{stroke:#fff;}</style></defs><title>OpenTodo-Logo-Black</title><g id="Layer_2" data-name="Layer 2"><g id="Artboard-Logo-OpenTodo-black"><g id="Logo-Open-Todo-black"><text class="cls-1" transform="translate(156.06 439.22)">Ope<tspan class="cls-2" x="502.53" y="0">n</tspan><tspan class="cls-3" x="660.52" y="0">T</tspan><tspan x="792.58" y="0">odo</tspan></text><g id="Nodos"><circle cx="256.43" cy="354.91" r="73.3" transform="translate(-70.12 63.21) rotate(-12.38)"/><circle cx="340.73" cy="598.03" r="24.32" transform="translate(-120.27 86.94) rotate(-12.38)"/><circle cx="858.7" cy="534.05" r="24.32" transform="translate(-94.52 196.48) rotate(-12.38)"/><circle cx="1027.37" cy="374.7" r="43.64" transform="translate(-56.44 228.93) rotate(-12.38)"/><circle cx="1346.73" cy="374.7" r="43.64" transform="translate(-49.02 297.38) rotate(-12.38)"/><circle cx="1592.57" cy="524.11" r="24.32" transform="translate(-75.33 353.55) rotate(-12.38)"/><path class="cls-4" d="M340.23,595.07"/><path class="cls-4" d="M629.29,464.69"/><path class="cls-4" d="M1592,520.75"/><path class="cls-4" d="M340.23,597"/><path class="cls-5" d="M1238.17,743.42"/><circle cx="1240.81" cy="743.95" r="33.01" transform="translate(-130.63 283.26) rotate(-12.38)"/><circle cx="1536.86" cy="63.27" r="24.32" transform="translate(22.16 330.9) rotate(-12.38)"/><circle cx="1297.59" cy="171.41" r="24.32" transform="translate(-6.58 282.12) rotate(-12.38)"/><circle cx="1066.83" cy="24.33" r="24.32" transform="translate(19.58 229.24) rotate(-12.38)"/><path class="cls-4" d="M1064.57,22.8"/><path class="cls-4" d="M1064.57,25.13"/><path class="cls-4" d="M1064.57,27.46"/><circle cx="547.56" cy="130.44" r="17.5" transform="translate(-15.23 120.4) rotate(-12.38)"/><circle cx="140.24" cy="721.2" r="37.97" transform="translate(-151.33 46.82) rotate(-12.38)"/><circle cx="24.33" cy="71.21" r="24.32" transform="translate(-14.7 6.87) rotate(-12.38)"/><line class="cls-6" x1="1346.09" y1="374.06" x2="1590.85" y2="520.92"/><line class="cls-6" x1="1064.02" y1="22.06" x2="1297.13" y2="171.25"/><path class="cls-7" d="M1297.13,171.25"/><path class="cls-4" d="M546.52,129.29"/><line class="cls-6" x1="24.35" y1="73.34" x2="259.79" y2="362.4"/><line class="cls-6" x1="341.38" y1="595.51" x2="259.79" y2="362.4"/><line class="cls-6" x1="858.89" y1="532.57" x2="1026.73" y2="374.06"/><line class="cls-6" x1="1346.09" y1="374.06" x2="1299.47" y2="166.59"/><line class="cls-6" x1="1239.16" y1="745.24" x2="1348.73" y2="374.59"/><line class="cls-6" x1="259.79" y1="362.4" x2="546.52" y2="129.29"/><line class="cls-6" x1="1297.13" y1="171.25" x2="1537.24" y2="61.69"/><line class="cls-6" x1="259.79" y1="360.07" x2="140.91" y2="721.39"/><path class="cls-6" d="M1590.85,520.92"/><path class="cls-6" d="M1024.39,378.72"/><line class="cls-6" x1="1024.39" y1="378.72" x2="1064.02" y2="26.72"/></g></g></g></g></svg>